#!OML:ASF F:\VICON\USERDATA\INSTALL\rory3\rory3.ASF
:FULLY-SPECIFIED
:DEGREES
1
root 3.57601 17.6241 3.48123 18.6506 -17.7604 -1.37782
lowerback -9.83225 3.93126 3.79992
upperback -12.5393 4.9748 -0.181217
thorax -7.46601 2.12946 -2.12506
lowerneck -3.25987 17.0561 12.6452
upperneck 15.4175 21.4318 4.75506
head 6.0841 11.4338 1.12249
rclavicle -8.5378e-014 -2.78299e-014
rhumerus 5.49727 -22.0342 12.8728
rradius 119.48
rwrist -58.6999
rhand -8.59903 -45.8506
rfingers 7.12502
rthumb 17.3324 -75.0978
lclavicle -8.5378e-014 -2.78299e-014
lhumerus 27.2775 21.5036 -24.082
lradius 32.5869
lwrist 32.8848
lhand -25.8663 -24.9733
lfingers 7.12502
lthumb 0.674908 5.00533
rfemur 0.485464 2.59261 -3.92163
rtibia 6.36111e-015
rfoot -34.2108 -17.6352
rtoes 54.3339
lfemur -21.1271 -2.55921 -25.0385
ltibia 17.0847
lfoot -11.9601 14.701
ltoes 9.40053
2
root 3.57559 17.6247 3.47431 18.6467 -17.7204 -1.42355
lowerback -9.76297 3.91887 3.83643
upperback -12.522 4.96122 -0.168851
thorax -7.48446 2.12012 -2.13682
lowerneck -3.1392 17.0154 12.6787
upperneck 15.3109 21.4078 4.65572
head 6.04387 11.4141 1.07085
rclavicle -4.36332e-014 -4.37326e-015
rhumerus 5.54597 -22.1093 12.766
rradius 119.465
rwrist -58.7124
rhand -8.80172 -45.8178
rfingers 7.12502
rthumb 17.1373 -75.082
lclavicle -4.36332e-014 -4.37326e-015
lhumerus 27.2374 21.4592 -24.1322
lradius 32.5996
lwrist 32.9724
lhand -26.4454 -25.0313
lfingers 7.12502
lthumb 0.11555 4.94845
rfemur 0.483893 2.57846 -3.85406
rtibia -9.54166e-015
rfoot -33.8012 -18.426
rtoes 54.0142
lfemur -21.1317 -2.57695 -24.9719
ltibia 17.083
lfoot -11.9938 14.7105
ltoes 9.61324
3
root 3.57554 17.6254 3.47033 18.6532 -17.6632 -1.42891
lowerback -9.66074 3.90247 3.83364
upperback -12.5477 4.94622 -0.170513
thorax -7.57142 2.11027 -2.14602
lowerneck -3.22768 16.9806 12.6516
upperneck 15.4192 21.3476 4.65864
head 6.08801 11.3873 1.0839
rclavicle -3.36443e-014 -1.80894e-014
rhumerus 5.54278 -22.1814 12.7354
rradius 119.457
rwrist -58.7984
rhand -8.30741 -45.8481
rfingers 7.12502
rthumb 17.613 -75.0703
lclavicle -3.36443e-014 -1.80894e-014
lhumerus 27.2239 21.3351 -24.1759
lradius 32.6258
lwrist 33.0357
lhand -26.493 -25.1136
lfingers 7.12502
lthumb 0.0695939 4.8661
rfemur 0.470733 2.5285 -3.82739
rtibia -1.59028e-014
rfoot -33.795 -18.3273
rtoes 54.2543
lfemur -21.1523 -2.67414 -24.9221
ltibia 17.0547
lfoot -11.8998 14.7091
ltoes 9.60903
4
root 3.57447 17.6267 3.46901 18.6546 -17.6544 -1.41122
lowerback -9.53204 3.89736 3.78133
upperback -12.6072 4.94979 -0.181167
thorax -7.71327 2.11146 -2.14011
lowerneck -3.23724 16.9417 12.6895
upperneck 15.4532 21.2978 4.60483
head 6.10915 11.3628 1.06352
rclavicle -6.60959e-015 3.37934e-015
rhumerus 5.51534 -22.1591 12.7233
rradius 119.477
rwrist -58.849
rhand -7.84329 -45.9505
rfingers 7.12502
rthumb 18.0596 -75.1321
lclavicle -6.60959e-015 3.37934e-015
lhumerus 27.3421 21.4108 -23.9925
lradius 32.5852
lwrist 32.7335
lhand -26.1796 -25.3202
lfingers 7.12502
lthumb 0.372265 4.65924
rfemur 0.444874 2.51327 -3.83703
rtibia 9.54166e-015
rfoot -34.2287 -17.8182
rtoes 54.3944
lfemur -21.1675 -2.95532 -24.8628
ltibia 17.0437
lfoot -11.7905 14.9292
ltoes 9.63232
5
root 3.5738 17.6291 3.46803 18.6766 -17.6716 -1.4397
lowerback -9.53492 3.92276 3.79037
upperback -12.5852 4.98242 -0.192939
thorax -7.68302 2.12773 -2.15502
lowerneck -3.27679 16.9082 12.6755
upperneck 15.4036 21.2499 4.59133
head 6.09764 11.3362 1.05708
rclavicle -9.44227e-016 -1.94809e-014
rhumerus 5.43962 -22.2194 12.748
rradius 119.479
rwrist -58.8373
rhand -8.24353 -45.9102
rfingers 7.12502
rthumb 17.6745 -75.1269
lclavicle -9.44227e-016 -1.94809e-014
lhumerus 27.6029 21.9105 -23.5227
lradius 32.4322
lwrist 32.0972
lhand -26.1303 -25.4879
lfingers 7.12502
lthumb 0.419863 4.49141
rfemur 0.417404 2.53139 -3.80732
rtibia -3.18055e-015
rfoot -34.4375 -17.4687
rtoes 54.5281
lfemur -21.1848 -3.18287 -24.7767
ltibia 17.0419
lfoot -11.8226 15.1599
ltoes 10.0731
6
root 3.57442 17.63 3.46675 18.6938 -17.6678 -1.46949
lowerback -9.61088 3.93516 3.83195
upperback -12.5294 4.9921 -0.19039
thorax -7.57405 2.13296 -2.16686
lowerneck -3.33933 16.8924 12.5447
upperneck 15.3837 21.2186 4.67219
head 6.07658 11.3192 1.09398
rclavicle -5.11374e-014 -3.37934e-014
rhumerus 5.41234 -22.3252 12.7547
rradius 119.444
rwrist -58.8886
rhand -8.73964 -45.7459
rfingers 7.12502
rthumb 17.1971 -75.0049
lclavicle -5.11374e-014 -3.37934e-014
lhumerus 27.8612 22.5353 -22.99
lradius 32.2298
lwrist 31.3781
lhand -26.0202 -25.6096
lfingers 7.12502
lthumb 0.526202 4.36948
rfemur 0.406099 2.53337 -3.77461
rtibia -1.27222e-014
rfoot -34.7024 -16.7196
rtoes 55.0644
lfemur -21.1878 -3.18805 -24.7447
ltibia 17.0188
lfoot -11.8841 15.1707
ltoes 10.2428
